<mxfile host="app.diagrams.net" modified="2022-09-16T08:07:59.771Z" agent="5.0 (Windows NT 10.0; Win64; x64) AppleWebKit/537.36 (KHTML, like Gecko) Chrome/105.0.0.0 Safari/537.36" etag="XBXZazlMUaRaCsXsxQ8m" version="20.3.0" type="github" pages="4">
  <diagram id="wMf3YCY0R5SblOMllHFq" name="UML">
    <mxGraphModel dx="2062" dy="1121" grid="1" gridSize="10" guides="1" tooltips="1" connect="1" arrows="1" fold="1" page="1" pageScale="1" pageWidth="827" pageHeight="1169" math="0" shadow="0">
      <root>
        <mxCell id="0" />
        <mxCell id="1" parent="0" />
        <mxCell id="aPZhb-t2ADrcSuYCc9ER-1" value="ReentrantLock" style="swimlane;fontStyle=1;align=center;verticalAlign=top;childLayout=stackLayout;horizontal=1;startSize=26;horizontalStack=0;resizeParent=1;resizeParentMax=0;resizeLast=0;collapsible=1;marginBottom=0;" parent="1" vertex="1">
          <mxGeometry x="370" y="517" width="160" height="150" as="geometry" />
        </mxCell>
        <mxCell id="aPZhb-t2ADrcSuYCc9ER-2" value="+ sync: Sync" style="text;strokeColor=none;fillColor=none;align=left;verticalAlign=top;spacingLeft=4;spacingRight=4;overflow=hidden;rotatable=0;points=[[0,0.5],[1,0.5]];portConstraint=eastwest;" parent="aPZhb-t2ADrcSuYCc9ER-1" vertex="1">
          <mxGeometry y="26" width="160" height="44" as="geometry" />
        </mxCell>
        <mxCell id="aPZhb-t2ADrcSuYCc9ER-3" value="" style="line;strokeWidth=1;fillColor=none;align=left;verticalAlign=middle;spacingTop=-1;spacingLeft=3;spacingRight=3;rotatable=0;labelPosition=right;points=[];portConstraint=eastwest;" parent="aPZhb-t2ADrcSuYCc9ER-1" vertex="1">
          <mxGeometry y="70" width="160" height="2" as="geometry" />
        </mxCell>
        <mxCell id="aPZhb-t2ADrcSuYCc9ER-4" value="+ lock(): void&#xa;+ tryLock(): void&#xa;+ tryLock(long,TimeUnit):void" style="text;strokeColor=none;fillColor=none;align=left;verticalAlign=top;spacingLeft=4;spacingRight=4;overflow=hidden;rotatable=0;points=[[0,0.5],[1,0.5]];portConstraint=eastwest;" parent="aPZhb-t2ADrcSuYCc9ER-1" vertex="1">
          <mxGeometry y="72" width="160" height="78" as="geometry" />
        </mxCell>
        <mxCell id="aPZhb-t2ADrcSuYCc9ER-5" value="Sync" style="swimlane;fontStyle=1;align=center;verticalAlign=top;childLayout=stackLayout;horizontal=1;startSize=26;horizontalStack=0;resizeParent=1;resizeParentMax=0;resizeLast=0;collapsible=1;marginBottom=0;" parent="1" vertex="1">
          <mxGeometry x="730" y="542" width="160" height="100" as="geometry" />
        </mxCell>
        <mxCell id="aPZhb-t2ADrcSuYCc9ER-7" value="" style="line;strokeWidth=1;fillColor=none;align=left;verticalAlign=middle;spacingTop=-1;spacingLeft=3;spacingRight=3;rotatable=0;labelPosition=right;points=[];portConstraint=eastwest;" parent="aPZhb-t2ADrcSuYCc9ER-5" vertex="1">
          <mxGeometry y="26" width="160" height="8" as="geometry" />
        </mxCell>
        <mxCell id="aPZhb-t2ADrcSuYCc9ER-8" value="+ lock(): void&#xa;+ tryRelease(int); boolean" style="text;strokeColor=none;fillColor=none;align=left;verticalAlign=top;spacingLeft=4;spacingRight=4;overflow=hidden;rotatable=0;points=[[0,0.5],[1,0.5]];portConstraint=eastwest;" parent="aPZhb-t2ADrcSuYCc9ER-5" vertex="1">
          <mxGeometry y="34" width="160" height="66" as="geometry" />
        </mxCell>
        <mxCell id="aPZhb-t2ADrcSuYCc9ER-9" value="AbstractQueuedSynchronizer" style="swimlane;fontStyle=1;align=center;verticalAlign=top;childLayout=stackLayout;horizontal=1;startSize=26;horizontalStack=0;resizeParent=1;resizeParentMax=0;resizeLast=0;collapsible=1;marginBottom=0;" parent="1" vertex="1">
          <mxGeometry x="710" y="340" width="220" height="86" as="geometry" />
        </mxCell>
        <mxCell id="aPZhb-t2ADrcSuYCc9ER-10" value="+ field: type" style="text;strokeColor=none;fillColor=none;align=left;verticalAlign=top;spacingLeft=4;spacingRight=4;overflow=hidden;rotatable=0;points=[[0,0.5],[1,0.5]];portConstraint=eastwest;" parent="aPZhb-t2ADrcSuYCc9ER-9" vertex="1">
          <mxGeometry y="26" width="220" height="26" as="geometry" />
        </mxCell>
        <mxCell id="aPZhb-t2ADrcSuYCc9ER-11" value="" style="line;strokeWidth=1;fillColor=none;align=left;verticalAlign=middle;spacingTop=-1;spacingLeft=3;spacingRight=3;rotatable=0;labelPosition=right;points=[];portConstraint=eastwest;" parent="aPZhb-t2ADrcSuYCc9ER-9" vertex="1">
          <mxGeometry y="52" width="220" height="8" as="geometry" />
        </mxCell>
        <mxCell id="aPZhb-t2ADrcSuYCc9ER-12" value="+ method(type): type" style="text;strokeColor=none;fillColor=none;align=left;verticalAlign=top;spacingLeft=4;spacingRight=4;overflow=hidden;rotatable=0;points=[[0,0.5],[1,0.5]];portConstraint=eastwest;" parent="aPZhb-t2ADrcSuYCc9ER-9" vertex="1">
          <mxGeometry y="60" width="220" height="26" as="geometry" />
        </mxCell>
        <mxCell id="aPZhb-t2ADrcSuYCc9ER-13" value="AbstractOwnableSynchronizer" style="swimlane;fontStyle=1;align=center;verticalAlign=top;childLayout=stackLayout;horizontal=1;startSize=26;horizontalStack=0;resizeParent=1;resizeParentMax=0;resizeLast=0;collapsible=1;marginBottom=0;" parent="1" vertex="1">
          <mxGeometry x="715" y="130" width="210" height="86" as="geometry" />
        </mxCell>
        <mxCell id="aPZhb-t2ADrcSuYCc9ER-14" value="+ field: type" style="text;strokeColor=none;fillColor=none;align=left;verticalAlign=top;spacingLeft=4;spacingRight=4;overflow=hidden;rotatable=0;points=[[0,0.5],[1,0.5]];portConstraint=eastwest;" parent="aPZhb-t2ADrcSuYCc9ER-13" vertex="1">
          <mxGeometry y="26" width="210" height="26" as="geometry" />
        </mxCell>
        <mxCell id="aPZhb-t2ADrcSuYCc9ER-15" value="" style="line;strokeWidth=1;fillColor=none;align=left;verticalAlign=middle;spacingTop=-1;spacingLeft=3;spacingRight=3;rotatable=0;labelPosition=right;points=[];portConstraint=eastwest;" parent="aPZhb-t2ADrcSuYCc9ER-13" vertex="1">
          <mxGeometry y="52" width="210" height="8" as="geometry" />
        </mxCell>
        <mxCell id="aPZhb-t2ADrcSuYCc9ER-16" value="+ method(type): type" style="text;strokeColor=none;fillColor=none;align=left;verticalAlign=top;spacingLeft=4;spacingRight=4;overflow=hidden;rotatable=0;points=[[0,0.5],[1,0.5]];portConstraint=eastwest;" parent="aPZhb-t2ADrcSuYCc9ER-13" vertex="1">
          <mxGeometry y="60" width="210" height="26" as="geometry" />
        </mxCell>
        <mxCell id="aPZhb-t2ADrcSuYCc9ER-17" value="Extends" style="endArrow=block;endSize=16;endFill=0;html=1;rounded=0;exitX=0.5;exitY=0;exitDx=0;exitDy=0;" parent="1" source="aPZhb-t2ADrcSuYCc9ER-9" target="aPZhb-t2ADrcSuYCc9ER-13" edge="1">
          <mxGeometry width="160" relative="1" as="geometry">
            <mxPoint x="620" y="340" as="sourcePoint" />
            <mxPoint x="780" y="340" as="targetPoint" />
          </mxGeometry>
        </mxCell>
        <mxCell id="aPZhb-t2ADrcSuYCc9ER-18" value="Extends" style="endArrow=block;endSize=16;endFill=0;html=1;rounded=0;exitX=0.5;exitY=0;exitDx=0;exitDy=0;" parent="1" source="aPZhb-t2ADrcSuYCc9ER-5" target="aPZhb-t2ADrcSuYCc9ER-9" edge="1">
          <mxGeometry width="160" relative="1" as="geometry">
            <mxPoint x="620" y="450" as="sourcePoint" />
            <mxPoint x="820" y="450" as="targetPoint" />
          </mxGeometry>
        </mxCell>
        <mxCell id="aPZhb-t2ADrcSuYCc9ER-20" value="1" style="endArrow=open;html=1;endSize=12;startArrow=diamondThin;startSize=14;startFill=1;edgeStyle=orthogonalEdgeStyle;align=left;verticalAlign=bottom;rounded=0;" parent="1" source="aPZhb-t2ADrcSuYCc9ER-1" target="aPZhb-t2ADrcSuYCc9ER-5" edge="1">
          <mxGeometry x="-1" y="3" relative="1" as="geometry">
            <mxPoint x="620" y="600" as="sourcePoint" />
            <mxPoint x="780" y="600" as="targetPoint" />
          </mxGeometry>
        </mxCell>
        <mxCell id="aPZhb-t2ADrcSuYCc9ER-21" value="NonfairSync" style="swimlane;fontStyle=0;childLayout=stackLayout;horizontal=1;startSize=26;fillColor=none;horizontalStack=0;resizeParent=1;resizeParentMax=0;resizeLast=0;collapsible=1;marginBottom=0;" parent="1" vertex="1">
          <mxGeometry x="630" y="720" width="140" height="52" as="geometry" />
        </mxCell>
        <mxCell id="aPZhb-t2ADrcSuYCc9ER-25" value="FairSync" style="swimlane;fontStyle=0;childLayout=stackLayout;horizontal=1;startSize=26;fillColor=none;horizontalStack=0;resizeParent=1;resizeParentMax=0;resizeLast=0;collapsible=1;marginBottom=0;" parent="1" vertex="1">
          <mxGeometry x="880" y="720" width="140" height="52" as="geometry" />
        </mxCell>
        <mxCell id="aPZhb-t2ADrcSuYCc9ER-26" value="Extends" style="endArrow=block;endSize=16;endFill=0;html=1;rounded=0;exitX=0.75;exitY=0;exitDx=0;exitDy=0;" parent="1" source="aPZhb-t2ADrcSuYCc9ER-21" target="aPZhb-t2ADrcSuYCc9ER-5" edge="1">
          <mxGeometry width="160" relative="1" as="geometry">
            <mxPoint x="620" y="780" as="sourcePoint" />
            <mxPoint x="780" y="780" as="targetPoint" />
          </mxGeometry>
        </mxCell>
        <mxCell id="aPZhb-t2ADrcSuYCc9ER-27" value="Extends" style="endArrow=block;endSize=16;endFill=0;html=1;rounded=0;exitX=0.5;exitY=0;exitDx=0;exitDy=0;" parent="1" source="aPZhb-t2ADrcSuYCc9ER-25" target="aPZhb-t2ADrcSuYCc9ER-5" edge="1">
          <mxGeometry width="160" relative="1" as="geometry">
            <mxPoint x="620" y="780" as="sourcePoint" />
            <mxPoint x="870" y="830" as="targetPoint" />
          </mxGeometry>
        </mxCell>
      </root>
    </mxGraphModel>
  </diagram>
  <diagram id="LkAHIDFFZeVLwlDEEHP2" name="lock">
    <mxGraphModel dx="2889" dy="1121" grid="1" gridSize="10" guides="1" tooltips="1" connect="1" arrows="1" fold="1" page="1" pageScale="1" pageWidth="827" pageHeight="1169" math="0" shadow="0">
      <root>
        <mxCell id="0" />
        <mxCell id="1" parent="0" />
        <mxCell id="5BJyOPEvw7wC_g8cWCSK-1" value="Actor" style="shape=umlActor;verticalLabelPosition=bottom;verticalAlign=top;html=1;" parent="1" vertex="1">
          <mxGeometry x="160" y="40" width="30" height="60" as="geometry" />
        </mxCell>
        <mxCell id="5BJyOPEvw7wC_g8cWCSK-4" value="" style="endArrow=none;dashed=1;html=1;rounded=0;" parent="1" target="5BJyOPEvw7wC_g8cWCSK-1" edge="1">
          <mxGeometry width="50" height="50" relative="1" as="geometry">
            <mxPoint x="180" y="910" as="sourcePoint" />
            <mxPoint x="174.5" y="140" as="targetPoint" />
          </mxGeometry>
        </mxCell>
        <mxCell id="5BJyOPEvw7wC_g8cWCSK-5" value="ReentrantLock" style="shape=umlLifeline;perimeter=lifelinePerimeter;whiteSpace=wrap;html=1;container=1;collapsible=0;recursiveResize=0;outlineConnect=0;" parent="1" vertex="1">
          <mxGeometry x="300" y="60" width="100" height="300" as="geometry" />
        </mxCell>
        <mxCell id="5BJyOPEvw7wC_g8cWCSK-6" value="NonfairSync" style="shape=umlLifeline;perimeter=lifelinePerimeter;whiteSpace=wrap;html=1;container=1;collapsible=0;recursiveResize=0;outlineConnect=0;" parent="1" vertex="1">
          <mxGeometry x="470" y="60" width="100" height="300" as="geometry" />
        </mxCell>
        <mxCell id="5BJyOPEvw7wC_g8cWCSK-7" value="AbstractQueuedSynchronizer" style="shape=umlLifeline;perimeter=lifelinePerimeter;whiteSpace=wrap;html=1;container=1;collapsible=0;recursiveResize=0;outlineConnect=0;" parent="1" vertex="1">
          <mxGeometry x="620" y="60" width="170" height="300" as="geometry" />
        </mxCell>
        <mxCell id="5BJyOPEvw7wC_g8cWCSK-8" value="lock" style="html=1;verticalAlign=bottom;endArrow=block;rounded=0;" parent="1" target="5BJyOPEvw7wC_g8cWCSK-5" edge="1">
          <mxGeometry width="80" relative="1" as="geometry">
            <mxPoint x="180" y="209.5" as="sourcePoint" />
            <mxPoint x="260" y="209.5" as="targetPoint" />
            <mxPoint as="offset" />
          </mxGeometry>
        </mxCell>
        <mxCell id="5BJyOPEvw7wC_g8cWCSK-9" value="lock" style="html=1;verticalAlign=bottom;endArrow=block;rounded=0;" parent="1" edge="1">
          <mxGeometry width="80" relative="1" as="geometry">
            <mxPoint x="350" y="260" as="sourcePoint" />
            <mxPoint x="519.5" y="260" as="targetPoint" />
            <mxPoint as="offset" />
          </mxGeometry>
        </mxCell>
        <mxCell id="CcKMJzIiWHoYc19g9mOV-4" style="edgeStyle=orthogonalEdgeStyle;rounded=0;orthogonalLoop=1;jettySize=auto;html=1;entryX=0.5;entryY=0;entryDx=0;entryDy=0;" parent="1" source="CcKMJzIiWHoYc19g9mOV-1" target="CcKMJzIiWHoYc19g9mOV-5" edge="1">
          <mxGeometry relative="1" as="geometry">
            <mxPoint x="-490" y="200" as="targetPoint" />
          </mxGeometry>
        </mxCell>
        <mxCell id="CcKMJzIiWHoYc19g9mOV-1" value="start" style="whiteSpace=wrap;html=1;" parent="1" vertex="1">
          <mxGeometry x="-550" y="60" width="120" height="60" as="geometry" />
        </mxCell>
        <mxCell id="CcKMJzIiWHoYc19g9mOV-2" value="以非公平锁为例" style="text;html=1;align=center;verticalAlign=middle;resizable=0;points=[];autosize=1;strokeColor=none;fillColor=none;" parent="1" vertex="1">
          <mxGeometry x="-680" y="55" width="110" height="30" as="geometry" />
        </mxCell>
        <mxCell id="CcKMJzIiWHoYc19g9mOV-7" style="edgeStyle=orthogonalEdgeStyle;rounded=0;orthogonalLoop=1;jettySize=auto;html=1;" parent="1" source="CcKMJzIiWHoYc19g9mOV-5" target="CcKMJzIiWHoYc19g9mOV-6" edge="1">
          <mxGeometry relative="1" as="geometry" />
        </mxCell>
        <mxCell id="CcKMJzIiWHoYc19g9mOV-8" value="成功" style="edgeLabel;html=1;align=center;verticalAlign=middle;resizable=0;points=[];" parent="CcKMJzIiWHoYc19g9mOV-7" vertex="1" connectable="0">
          <mxGeometry y="-2" relative="1" as="geometry">
            <mxPoint as="offset" />
          </mxGeometry>
        </mxCell>
        <mxCell id="vEtstXqShwHBeF3AB5NA-1" style="edgeStyle=orthogonalEdgeStyle;rounded=0;orthogonalLoop=1;jettySize=auto;html=1;" edge="1" parent="1" source="CcKMJzIiWHoYc19g9mOV-5" target="CcKMJzIiWHoYc19g9mOV-9">
          <mxGeometry relative="1" as="geometry" />
        </mxCell>
        <mxCell id="CcKMJzIiWHoYc19g9mOV-5" value="cas设置state&lt;br&gt;0 -&amp;gt; 1" style="rhombus;whiteSpace=wrap;html=1;fontFamily=Helvetica;fontSize=12;fontColor=default;" parent="1" vertex="1">
          <mxGeometry x="-560" y="180" width="140" height="130" as="geometry" />
        </mxCell>
        <mxCell id="vEtstXqShwHBeF3AB5NA-13" style="edgeStyle=orthogonalEdgeStyle;rounded=0;orthogonalLoop=1;jettySize=auto;html=1;entryX=0.5;entryY=0;entryDx=0;entryDy=0;" edge="1" parent="1" source="CcKMJzIiWHoYc19g9mOV-6" target="vEtstXqShwHBeF3AB5NA-12">
          <mxGeometry relative="1" as="geometry" />
        </mxCell>
        <mxCell id="CcKMJzIiWHoYc19g9mOV-6" value="把锁持有者设置为当前线程" style="whiteSpace=wrap;html=1;" parent="1" vertex="1">
          <mxGeometry x="-770" y="215" width="120" height="60" as="geometry" />
        </mxCell>
        <mxCell id="vEtstXqShwHBeF3AB5NA-4" style="edgeStyle=orthogonalEdgeStyle;rounded=0;orthogonalLoop=1;jettySize=auto;html=1;entryX=0.5;entryY=0;entryDx=0;entryDy=0;" edge="1" parent="1" source="CcKMJzIiWHoYc19g9mOV-9" target="vEtstXqShwHBeF3AB5NA-2">
          <mxGeometry relative="1" as="geometry" />
        </mxCell>
        <mxCell id="CcKMJzIiWHoYc19g9mOV-9" value="拿到state" style="whiteSpace=wrap;html=1;" parent="1" vertex="1">
          <mxGeometry x="-320" y="215" width="120" height="60" as="geometry" />
        </mxCell>
        <mxCell id="vEtstXqShwHBeF3AB5NA-3" style="edgeStyle=orthogonalEdgeStyle;rounded=0;orthogonalLoop=1;jettySize=auto;html=1;entryX=0.5;entryY=1;entryDx=0;entryDy=0;" edge="1" parent="1" source="vEtstXqShwHBeF3AB5NA-2" target="CcKMJzIiWHoYc19g9mOV-5">
          <mxGeometry relative="1" as="geometry" />
        </mxCell>
        <mxCell id="vEtstXqShwHBeF3AB5NA-5" value="是" style="edgeLabel;html=1;align=center;verticalAlign=middle;resizable=0;points=[];" vertex="1" connectable="0" parent="vEtstXqShwHBeF3AB5NA-3">
          <mxGeometry x="-0.4857" y="1" relative="1" as="geometry">
            <mxPoint as="offset" />
          </mxGeometry>
        </mxCell>
        <mxCell id="vEtstXqShwHBeF3AB5NA-11" value="否" style="edgeStyle=orthogonalEdgeStyle;rounded=0;orthogonalLoop=1;jettySize=auto;html=1;" edge="1" parent="1" source="vEtstXqShwHBeF3AB5NA-2" target="vEtstXqShwHBeF3AB5NA-6">
          <mxGeometry relative="1" as="geometry" />
        </mxCell>
        <mxCell id="vEtstXqShwHBeF3AB5NA-2" value="锁已释放？" style="rhombus;whiteSpace=wrap;html=1;fontFamily=Helvetica;fontSize=12;fontColor=default;" vertex="1" parent="1">
          <mxGeometry x="-330" y="330" width="140" height="130" as="geometry" />
        </mxCell>
        <mxCell id="vEtstXqShwHBeF3AB5NA-9" style="edgeStyle=orthogonalEdgeStyle;rounded=0;orthogonalLoop=1;jettySize=auto;html=1;" edge="1" parent="1" source="vEtstXqShwHBeF3AB5NA-6" target="vEtstXqShwHBeF3AB5NA-8">
          <mxGeometry relative="1" as="geometry" />
        </mxCell>
        <mxCell id="vEtstXqShwHBeF3AB5NA-10" value="是" style="edgeLabel;html=1;align=center;verticalAlign=middle;resizable=0;points=[];" vertex="1" connectable="0" parent="vEtstXqShwHBeF3AB5NA-9">
          <mxGeometry x="-0.1538" y="-1" relative="1" as="geometry">
            <mxPoint as="offset" />
          </mxGeometry>
        </mxCell>
        <mxCell id="vEtstXqShwHBeF3AB5NA-17" value="否" style="edgeStyle=orthogonalEdgeStyle;rounded=0;orthogonalLoop=1;jettySize=auto;html=1;" edge="1" parent="1" source="vEtstXqShwHBeF3AB5NA-6" target="vEtstXqShwHBeF3AB5NA-15">
          <mxGeometry relative="1" as="geometry" />
        </mxCell>
        <mxCell id="vEtstXqShwHBeF3AB5NA-6" value="持有锁的是当前线程？" style="rhombus;whiteSpace=wrap;html=1;fontFamily=Helvetica;fontSize=12;fontColor=default;" vertex="1" parent="1">
          <mxGeometry x="-330" y="530" width="140" height="130" as="geometry" />
        </mxCell>
        <mxCell id="vEtstXqShwHBeF3AB5NA-14" style="edgeStyle=orthogonalEdgeStyle;rounded=0;orthogonalLoop=1;jettySize=auto;html=1;entryX=0.817;entryY=-0.017;entryDx=0;entryDy=0;entryPerimeter=0;" edge="1" parent="1" source="vEtstXqShwHBeF3AB5NA-8" target="vEtstXqShwHBeF3AB5NA-12">
          <mxGeometry relative="1" as="geometry" />
        </mxCell>
        <mxCell id="vEtstXqShwHBeF3AB5NA-8" value="state + 1&lt;br&gt;锁重入" style="whiteSpace=wrap;html=1;" vertex="1" parent="1">
          <mxGeometry x="-580" y="565" width="120" height="60" as="geometry" />
        </mxCell>
        <mxCell id="vEtstXqShwHBeF3AB5NA-12" value="end" style="whiteSpace=wrap;html=1;" vertex="1" parent="1">
          <mxGeometry x="-770" y="750" width="120" height="60" as="geometry" />
        </mxCell>
        <mxCell id="vEtstXqShwHBeF3AB5NA-18" style="edgeStyle=orthogonalEdgeStyle;rounded=0;orthogonalLoop=1;jettySize=auto;html=1;entryX=0.5;entryY=0;entryDx=0;entryDy=0;" edge="1" parent="1" source="vEtstXqShwHBeF3AB5NA-15" target="vEtstXqShwHBeF3AB5NA-21">
          <mxGeometry relative="1" as="geometry">
            <mxPoint x="-260" y="860" as="targetPoint" />
          </mxGeometry>
        </mxCell>
        <mxCell id="vEtstXqShwHBeF3AB5NA-15" value="将当前线程构造成节点node，并将节点加入到等待队列的末尾" style="whiteSpace=wrap;html=1;" vertex="1" parent="1">
          <mxGeometry x="-320" y="730" width="120" height="60" as="geometry" />
        </mxCell>
        <mxCell id="vEtstXqShwHBeF3AB5NA-19" value="&lt;font color=&quot;#006600&quot;&gt;注意：&lt;/font&gt;队列的头节点是个虚节点" style="shape=document;whiteSpace=wrap;html=1;boundedLbl=1;" vertex="1" parent="1">
          <mxGeometry x="-80" y="680" width="120" height="80" as="geometry" />
        </mxCell>
        <mxCell id="vEtstXqShwHBeF3AB5NA-20" value="" style="shape=flexArrow;endArrow=classic;html=1;rounded=0;exitX=1;exitY=0.5;exitDx=0;exitDy=0;entryX=-0.033;entryY=0.625;entryDx=0;entryDy=0;entryPerimeter=0;" edge="1" parent="1" source="vEtstXqShwHBeF3AB5NA-15" target="vEtstXqShwHBeF3AB5NA-19">
          <mxGeometry width="50" height="50" relative="1" as="geometry">
            <mxPoint x="-30" y="770" as="sourcePoint" />
            <mxPoint x="20" y="720" as="targetPoint" />
          </mxGeometry>
        </mxCell>
        <mxCell id="vEtstXqShwHBeF3AB5NA-27" style="edgeStyle=orthogonalEdgeStyle;rounded=0;orthogonalLoop=1;jettySize=auto;html=1;entryX=0.5;entryY=0;entryDx=0;entryDy=0;fontColor=#000000;" edge="1" parent="1" source="vEtstXqShwHBeF3AB5NA-21" target="vEtstXqShwHBeF3AB5NA-23">
          <mxGeometry relative="1" as="geometry" />
        </mxCell>
        <mxCell id="vEtstXqShwHBeF3AB5NA-21" value="&lt;font color=&quot;#000000&quot;&gt;获取node的前驱节点p&lt;/font&gt;" style="whiteSpace=wrap;html=1;fontColor=#006600;" vertex="1" parent="1">
          <mxGeometry x="-320" y="870" width="120" height="60" as="geometry" />
        </mxCell>
        <mxCell id="vEtstXqShwHBeF3AB5NA-26" value="是" style="edgeStyle=orthogonalEdgeStyle;rounded=0;orthogonalLoop=1;jettySize=auto;html=1;entryX=0.5;entryY=0;entryDx=0;entryDy=0;fontColor=#000000;" edge="1" parent="1" source="vEtstXqShwHBeF3AB5NA-23" target="vEtstXqShwHBeF3AB5NA-25">
          <mxGeometry relative="1" as="geometry" />
        </mxCell>
        <mxCell id="vEtstXqShwHBeF3AB5NA-23" value="p是头节点" style="rhombus;whiteSpace=wrap;html=1;fontFamily=Helvetica;fontSize=12;fontColor=default;" vertex="1" parent="1">
          <mxGeometry x="-330" y="970" width="140" height="130" as="geometry" />
        </mxCell>
        <mxCell id="vEtstXqShwHBeF3AB5NA-35" value="失败" style="edgeStyle=orthogonalEdgeStyle;rounded=0;orthogonalLoop=1;jettySize=auto;html=1;fontColor=#000000;" edge="1" parent="1" source="vEtstXqShwHBeF3AB5NA-25" target="vEtstXqShwHBeF3AB5NA-29">
          <mxGeometry relative="1" as="geometry" />
        </mxCell>
        <mxCell id="vEtstXqShwHBeF3AB5NA-36" style="edgeStyle=orthogonalEdgeStyle;rounded=0;orthogonalLoop=1;jettySize=auto;html=1;entryX=0.75;entryY=1;entryDx=0;entryDy=0;fontColor=#000000;" edge="1" parent="1" source="vEtstXqShwHBeF3AB5NA-25" target="vEtstXqShwHBeF3AB5NA-12">
          <mxGeometry relative="1" as="geometry" />
        </mxCell>
        <mxCell id="vEtstXqShwHBeF3AB5NA-37" value="成功" style="edgeLabel;html=1;align=center;verticalAlign=middle;resizable=0;points=[];fontColor=#000000;" vertex="1" connectable="0" parent="vEtstXqShwHBeF3AB5NA-36">
          <mxGeometry x="-0.449" y="-1" relative="1" as="geometry">
            <mxPoint as="offset" />
          </mxGeometry>
        </mxCell>
        <mxCell id="vEtstXqShwHBeF3AB5NA-25" value="尝试获取锁" style="rhombus;whiteSpace=wrap;html=1;fontFamily=Helvetica;fontSize=12;fontColor=default;" vertex="1" parent="1">
          <mxGeometry x="-330" y="1150" width="140" height="130" as="geometry" />
        </mxCell>
        <mxCell id="vEtstXqShwHBeF3AB5NA-30" style="edgeStyle=orthogonalEdgeStyle;rounded=0;orthogonalLoop=1;jettySize=auto;html=1;fontColor=#000000;entryX=1;entryY=0.5;entryDx=0;entryDy=0;" edge="1" parent="1" source="vEtstXqShwHBeF3AB5NA-29" target="vEtstXqShwHBeF3AB5NA-38">
          <mxGeometry relative="1" as="geometry">
            <mxPoint x="-430" y="1600" as="targetPoint" />
            <Array as="points">
              <mxPoint x="-630" y="1415" />
            </Array>
          </mxGeometry>
        </mxCell>
        <mxCell id="vEtstXqShwHBeF3AB5NA-31" value="就绪，等待资源&lt;br&gt;SIGNAL" style="edgeLabel;html=1;align=center;verticalAlign=middle;resizable=0;points=[];fontColor=#000000;" vertex="1" connectable="0" parent="vEtstXqShwHBeF3AB5NA-30">
          <mxGeometry x="0.0807" y="1" relative="1" as="geometry">
            <mxPoint as="offset" />
          </mxGeometry>
        </mxCell>
        <mxCell id="vEtstXqShwHBeF3AB5NA-32" style="edgeStyle=orthogonalEdgeStyle;rounded=0;orthogonalLoop=1;jettySize=auto;html=1;fontColor=#000000;entryX=0.5;entryY=0;entryDx=0;entryDy=0;" edge="1" parent="1" source="vEtstXqShwHBeF3AB5NA-29" target="vEtstXqShwHBeF3AB5NA-39">
          <mxGeometry relative="1" as="geometry">
            <mxPoint x="-260" y="1640" as="targetPoint" />
          </mxGeometry>
        </mxCell>
        <mxCell id="vEtstXqShwHBeF3AB5NA-33" value="已放弃获取资源&lt;br&gt;CANCELLED" style="edgeLabel;html=1;align=center;verticalAlign=middle;resizable=0;points=[];fontColor=#000000;" vertex="1" connectable="0" parent="vEtstXqShwHBeF3AB5NA-32">
          <mxGeometry x="-0.2375" y="1" relative="1" as="geometry">
            <mxPoint as="offset" />
          </mxGeometry>
        </mxCell>
        <mxCell id="vEtstXqShwHBeF3AB5NA-34" style="edgeStyle=orthogonalEdgeStyle;rounded=0;orthogonalLoop=1;jettySize=auto;html=1;fontColor=#000000;entryX=0.5;entryY=0;entryDx=0;entryDy=0;" edge="1" parent="1" source="vEtstXqShwHBeF3AB5NA-29" target="vEtstXqShwHBeF3AB5NA-41">
          <mxGeometry relative="1" as="geometry">
            <mxPoint x="-40" y="1610" as="targetPoint" />
          </mxGeometry>
        </mxCell>
        <mxCell id="vEtstXqShwHBeF3AB5NA-46" value="&lt;span style=&quot;font-size: 12px; text-align: left; background-color: rgb(248, 249, 250);&quot;&gt;CONDITION or&lt;br&gt;&amp;nbsp;PROPAGATE&lt;/span&gt;" style="edgeLabel;html=1;align=center;verticalAlign=middle;resizable=0;points=[];fontColor=#000000;" vertex="1" connectable="0" parent="vEtstXqShwHBeF3AB5NA-34">
          <mxGeometry x="0.1229" y="2" relative="1" as="geometry">
            <mxPoint as="offset" />
          </mxGeometry>
        </mxCell>
        <mxCell id="vEtstXqShwHBeF3AB5NA-29" value="判断前驱节点的状态" style="rhombus;whiteSpace=wrap;html=1;fontFamily=Helvetica;fontSize=12;fontColor=default;" vertex="1" parent="1">
          <mxGeometry x="-330" y="1350" width="140" height="130" as="geometry" />
        </mxCell>
        <mxCell id="vEtstXqShwHBeF3AB5NA-47" style="edgeStyle=orthogonalEdgeStyle;rounded=0;orthogonalLoop=1;jettySize=auto;html=1;entryX=0.25;entryY=1;entryDx=0;entryDy=0;fontColor=#000000;" edge="1" parent="1" source="vEtstXqShwHBeF3AB5NA-38" target="vEtstXqShwHBeF3AB5NA-12">
          <mxGeometry relative="1" as="geometry" />
        </mxCell>
        <mxCell id="vEtstXqShwHBeF3AB5NA-38" value="阻塞当前线程，设置中断状态" style="whiteSpace=wrap;html=1;fontColor=#000000;" vertex="1" parent="1">
          <mxGeometry x="-800" y="1385" width="120" height="60" as="geometry" />
        </mxCell>
        <mxCell id="vEtstXqShwHBeF3AB5NA-40" style="edgeStyle=orthogonalEdgeStyle;rounded=0;orthogonalLoop=1;jettySize=auto;html=1;fontColor=#000000;entryX=0.871;entryY=0.685;entryDx=0;entryDy=0;entryPerimeter=0;" edge="1" parent="1" source="vEtstXqShwHBeF3AB5NA-39" target="vEtstXqShwHBeF3AB5NA-29">
          <mxGeometry relative="1" as="geometry">
            <mxPoint x="-170" y="1440" as="targetPoint" />
            <Array as="points">
              <mxPoint x="-208" y="1590" />
              <mxPoint x="-208" y="1590" />
            </Array>
          </mxGeometry>
        </mxCell>
        <mxCell id="vEtstXqShwHBeF3AB5NA-39" value="找到上一个没有取消获取资源的节点，设置为当前节点的前驱节点" style="whiteSpace=wrap;html=1;fontColor=#000000;" vertex="1" parent="1">
          <mxGeometry x="-320" y="1680" width="120" height="60" as="geometry" />
        </mxCell>
        <mxCell id="vEtstXqShwHBeF3AB5NA-44" style="edgeStyle=orthogonalEdgeStyle;rounded=0;orthogonalLoop=1;jettySize=auto;html=1;fontColor=#000000;entryX=0.893;entryY=0.623;entryDx=0;entryDy=0;entryPerimeter=0;" edge="1" parent="1" source="vEtstXqShwHBeF3AB5NA-41" target="vEtstXqShwHBeF3AB5NA-29">
          <mxGeometry relative="1" as="geometry">
            <mxPoint x="-170" y="1440" as="targetPoint" />
            <Array as="points">
              <mxPoint x="-80" y="1431" />
            </Array>
          </mxGeometry>
        </mxCell>
        <mxCell id="vEtstXqShwHBeF3AB5NA-41" value="设置前驱节点状态为SIGNAL" style="whiteSpace=wrap;html=1;fontColor=#000000;" vertex="1" parent="1">
          <mxGeometry x="-100" y="1680" width="120" height="60" as="geometry" />
        </mxCell>
        <mxCell id="vEtstXqShwHBeF3AB5NA-42" value="SIGNAL：已就绪等待资源&lt;br&gt;&lt;div style=&quot;&quot;&gt;&lt;span style=&quot;background-color: initial;&quot;&gt;CANCELLED：线程已取消获取资源&lt;/span&gt;&lt;/div&gt;CONDITION：等待唤醒&lt;br&gt;PROPAGATE" style="shape=document;whiteSpace=wrap;html=1;boundedLbl=1;fontColor=#000000;align=left;" vertex="1" parent="1">
          <mxGeometry x="-90" y="1250" width="280" height="80" as="geometry" />
        </mxCell>
        <mxCell id="vEtstXqShwHBeF3AB5NA-43" value="" style="shape=flexArrow;endArrow=classic;html=1;rounded=0;fontColor=#000000;entryX=0;entryY=0.5;entryDx=0;entryDy=0;exitX=0.857;exitY=0.308;exitDx=0;exitDy=0;exitPerimeter=0;" edge="1" parent="1" source="vEtstXqShwHBeF3AB5NA-29" target="vEtstXqShwHBeF3AB5NA-42">
          <mxGeometry width="50" height="50" relative="1" as="geometry">
            <mxPoint x="-30" y="1690" as="sourcePoint" />
            <mxPoint x="20" y="1640" as="targetPoint" />
          </mxGeometry>
        </mxCell>
        <mxCell id="s0uvo3wwTLiSWGKgT-UO-1" value="LockSupport.park()" style="shape=document;whiteSpace=wrap;html=1;boundedLbl=1;fontColor=#000000;" vertex="1" parent="1">
          <mxGeometry x="-815" y="1560" width="150" height="80" as="geometry" />
        </mxCell>
        <mxCell id="s0uvo3wwTLiSWGKgT-UO-2" value="" style="shape=flexArrow;endArrow=classic;html=1;rounded=0;fontColor=#000000;exitX=0.5;exitY=1;exitDx=0;exitDy=0;entryX=0.5;entryY=0;entryDx=0;entryDy=0;" edge="1" parent="1" source="vEtstXqShwHBeF3AB5NA-38" target="s0uvo3wwTLiSWGKgT-UO-1">
          <mxGeometry width="50" height="50" relative="1" as="geometry">
            <mxPoint x="-520" y="1490" as="sourcePoint" />
            <mxPoint x="-470" y="1440" as="targetPoint" />
          </mxGeometry>
        </mxCell>
      </root>
    </mxGraphModel>
  </diagram>
  <diagram id="psnwYlz7nTenwIcom3Wk" name="unlock">
    <mxGraphModel dx="2062" dy="1121" grid="1" gridSize="10" guides="1" tooltips="1" connect="1" arrows="1" fold="1" page="1" pageScale="1" pageWidth="827" pageHeight="1169" math="0" shadow="0">
      <root>
        <mxCell id="0" />
        <mxCell id="1" parent="0" />
        <mxCell id="dPK34BquxRaG-UTX9CmL-11" style="edgeStyle=orthogonalEdgeStyle;rounded=0;orthogonalLoop=1;jettySize=auto;html=1;fontColor=#000000;" edge="1" parent="1" source="dPK34BquxRaG-UTX9CmL-1" target="dPK34BquxRaG-UTX9CmL-3">
          <mxGeometry relative="1" as="geometry" />
        </mxCell>
        <mxCell id="dPK34BquxRaG-UTX9CmL-1" value="start" style="whiteSpace=wrap;html=1;fontColor=#000000;" vertex="1" parent="1">
          <mxGeometry x="330" y="80" width="120" height="60" as="geometry" />
        </mxCell>
        <mxCell id="dPK34BquxRaG-UTX9CmL-12" value="否" style="edgeStyle=orthogonalEdgeStyle;rounded=0;orthogonalLoop=1;jettySize=auto;html=1;entryX=1;entryY=0.5;entryDx=0;entryDy=0;fontColor=#000000;" edge="1" parent="1" source="dPK34BquxRaG-UTX9CmL-3" target="dPK34BquxRaG-UTX9CmL-4">
          <mxGeometry relative="1" as="geometry" />
        </mxCell>
        <mxCell id="dPK34BquxRaG-UTX9CmL-13" value="是" style="edgeStyle=orthogonalEdgeStyle;rounded=0;orthogonalLoop=1;jettySize=auto;html=1;entryX=0.5;entryY=0;entryDx=0;entryDy=0;fontColor=#000000;" edge="1" parent="1" source="dPK34BquxRaG-UTX9CmL-3" target="dPK34BquxRaG-UTX9CmL-5">
          <mxGeometry relative="1" as="geometry" />
        </mxCell>
        <mxCell id="dPK34BquxRaG-UTX9CmL-3" value="当前线程是否持有锁" style="rhombus;whiteSpace=wrap;html=1;fontFamily=Helvetica;fontSize=12;fontColor=default;" vertex="1" parent="1">
          <mxGeometry x="320" y="220" width="140" height="130" as="geometry" />
        </mxCell>
        <mxCell id="dPK34BquxRaG-UTX9CmL-10" style="edgeStyle=orthogonalEdgeStyle;rounded=0;orthogonalLoop=1;jettySize=auto;html=1;fontColor=#000000;" edge="1" parent="1" source="dPK34BquxRaG-UTX9CmL-4" target="dPK34BquxRaG-UTX9CmL-8">
          <mxGeometry relative="1" as="geometry" />
        </mxCell>
        <mxCell id="dPK34BquxRaG-UTX9CmL-4" value="抛出异常" style="whiteSpace=wrap;html=1;fontColor=#000000;" vertex="1" parent="1">
          <mxGeometry x="80" y="255" width="120" height="60" as="geometry" />
        </mxCell>
        <mxCell id="dPK34BquxRaG-UTX9CmL-14" style="edgeStyle=orthogonalEdgeStyle;rounded=0;orthogonalLoop=1;jettySize=auto;html=1;fontColor=#000000;" edge="1" parent="1" source="dPK34BquxRaG-UTX9CmL-5" target="dPK34BquxRaG-UTX9CmL-6">
          <mxGeometry relative="1" as="geometry" />
        </mxCell>
        <mxCell id="dPK34BquxRaG-UTX9CmL-5" value="state - 1" style="whiteSpace=wrap;html=1;fontColor=#000000;" vertex="1" parent="1">
          <mxGeometry x="330" y="430" width="120" height="60" as="geometry" />
        </mxCell>
        <mxCell id="dPK34BquxRaG-UTX9CmL-9" value="否" style="edgeStyle=orthogonalEdgeStyle;rounded=0;orthogonalLoop=1;jettySize=auto;html=1;entryX=1;entryY=0.5;entryDx=0;entryDy=0;fontColor=#000000;" edge="1" parent="1" source="dPK34BquxRaG-UTX9CmL-6" target="dPK34BquxRaG-UTX9CmL-8">
          <mxGeometry relative="1" as="geometry" />
        </mxCell>
        <mxCell id="dPK34BquxRaG-UTX9CmL-15" value="是" style="edgeStyle=orthogonalEdgeStyle;rounded=0;orthogonalLoop=1;jettySize=auto;html=1;fontColor=#000000;" edge="1" parent="1" source="dPK34BquxRaG-UTX9CmL-6" target="dPK34BquxRaG-UTX9CmL-7">
          <mxGeometry relative="1" as="geometry" />
        </mxCell>
        <mxCell id="dPK34BquxRaG-UTX9CmL-6" value="当前线程是否已经完释放锁&lt;br&gt;state == 0" style="rhombus;whiteSpace=wrap;html=1;fontFamily=Helvetica;fontSize=12;fontColor=default;" vertex="1" parent="1">
          <mxGeometry x="320" y="580" width="140" height="130" as="geometry" />
        </mxCell>
        <mxCell id="dPK34BquxRaG-UTX9CmL-19" style="edgeStyle=orthogonalEdgeStyle;rounded=0;orthogonalLoop=1;jettySize=auto;html=1;entryX=0.5;entryY=0;entryDx=0;entryDy=0;fontColor=#000000;" edge="1" parent="1" source="dPK34BquxRaG-UTX9CmL-7" target="dPK34BquxRaG-UTX9CmL-17">
          <mxGeometry relative="1" as="geometry" />
        </mxCell>
        <mxCell id="dPK34BquxRaG-UTX9CmL-7" value="取消当前线程为锁的持有者" style="whiteSpace=wrap;html=1;fontColor=#000000;" vertex="1" parent="1">
          <mxGeometry x="330" y="770" width="120" height="60" as="geometry" />
        </mxCell>
        <mxCell id="dPK34BquxRaG-UTX9CmL-8" value="end" style="whiteSpace=wrap;html=1;fontColor=#000000;" vertex="1" parent="1">
          <mxGeometry x="80" y="615" width="120" height="60" as="geometry" />
        </mxCell>
        <mxCell id="dPK34BquxRaG-UTX9CmL-20" style="edgeStyle=orthogonalEdgeStyle;rounded=0;orthogonalLoop=1;jettySize=auto;html=1;entryX=0.5;entryY=0;entryDx=0;entryDy=0;fontColor=#000000;" edge="1" parent="1" source="dPK34BquxRaG-UTX9CmL-17" target="dPK34BquxRaG-UTX9CmL-18">
          <mxGeometry relative="1" as="geometry" />
        </mxCell>
        <mxCell id="dPK34BquxRaG-UTX9CmL-17" value="获取等待队列的头结点head" style="whiteSpace=wrap;html=1;fontColor=#000000;" vertex="1" parent="1">
          <mxGeometry x="330" y="900" width="120" height="60" as="geometry" />
        </mxCell>
        <mxCell id="dPK34BquxRaG-UTX9CmL-21" style="edgeStyle=orthogonalEdgeStyle;rounded=0;orthogonalLoop=1;jettySize=auto;html=1;entryX=0.5;entryY=1;entryDx=0;entryDy=0;fontColor=#000000;" edge="1" parent="1" source="dPK34BquxRaG-UTX9CmL-18" target="dPK34BquxRaG-UTX9CmL-8">
          <mxGeometry relative="1" as="geometry" />
        </mxCell>
        <mxCell id="dPK34BquxRaG-UTX9CmL-18" value="往后找到第一个非CANCELLED状态的节点，并唤醒" style="whiteSpace=wrap;html=1;fontColor=#000000;" vertex="1" parent="1">
          <mxGeometry x="330" y="1020" width="120" height="60" as="geometry" />
        </mxCell>
        <mxCell id="dPK34BquxRaG-UTX9CmL-22" value="" style="shape=flexArrow;endArrow=classic;html=1;rounded=0;fontColor=#000000;exitX=1;exitY=0.5;exitDx=0;exitDy=0;entryX=0;entryY=0.5;entryDx=0;entryDy=0;" edge="1" parent="1" source="dPK34BquxRaG-UTX9CmL-18" target="dPK34BquxRaG-UTX9CmL-24">
          <mxGeometry width="50" height="50" relative="1" as="geometry">
            <mxPoint x="390" y="1150" as="sourcePoint" />
            <mxPoint x="570" y="1000" as="targetPoint" />
          </mxGeometry>
        </mxCell>
        <mxCell id="dPK34BquxRaG-UTX9CmL-24" value="LockSupport.unpark(s.thread)" style="shape=document;whiteSpace=wrap;html=1;boundedLbl=1;fontColor=#000000;" vertex="1" parent="1">
          <mxGeometry x="570" y="950" width="200" height="80" as="geometry" />
        </mxCell>
      </root>
    </mxGraphModel>
  </diagram>
  <diagram id="r6fSkEH4f68ZHQfrFJqB" name="synchronized">
    <mxGraphModel dx="2062" dy="1121" grid="1" gridSize="10" guides="1" tooltips="1" connect="1" arrows="1" fold="1" page="1" pageScale="1" pageWidth="827" pageHeight="1169" math="0" shadow="0">
      <root>
        <mxCell id="0" />
        <mxCell id="1" parent="0" />
        <mxCell id="81c6ErLLMhzepzBZF4nn-1" value="&lt;font style=&quot;font-size: 17px;&quot;&gt;synchronized是由java虚拟机实现的，在字节码层面是在执行的代码前后添加monitorenter喝moniterexit命令来实现的。Java中线程的线程通讯是通过共享内存的，而jmm里面只有堆和方法区是线程共享的，synchronized中的锁就是利用堆中的对象来完成的。Java对象由对象头，对象体和填充字段组成。而对象头又由mark world，类型信息句柄组成，如果是数组类型还要增加一位来存储数组长度。synchronized的锁就是存储在mark world里面。通过复用该存储空间，可以表示无锁，偏向锁，轻量级锁和重量级锁四个状态。在无锁状态下是存储对象的hashcode，分代年龄信息。在线程进入synchronized代码块前，首先检查锁标志位，如果是可偏向的，检查是否已偏向当前线程，如果是的话，执行同步代码，否则cas竞争锁，成功则将mark world中Thread ID记录为当前线程id，并在栈桢Lock Record中存储当前线程ID。竞争失败：说明有竞争，等到达safepoint时会暂停持有偏向锁的线程，检查持有锁的线程是否还存活，如果已经处于不活跃状态，则将该锁偏向锁当前线程。否则升级为轻量级锁，由原来的线程持有锁。当前竞争线程进入自旋。轻量级锁的竞争：构造一个无锁状态的marl world设置到lock record里面，cas尝试将mark world中的记录指向lock rocord，成功：获取锁，失败则自旋。重量级锁：synchronized重量级锁是通过对象内部的monitor来实现的，每个对象都有一个与之关联的monitor，竞争重量级锁的时候会尝试将monitor对象里面的owner属性设置为当前线程，成功则将mark world中记录monitor的指针，否则阻塞。&lt;/font&gt;" style="whiteSpace=wrap;html=1;align=left;" parent="1" vertex="1">
          <mxGeometry x="90" y="40" width="860" height="400" as="geometry" />
        </mxCell>
        <mxCell id="95CVfnCXo2DmVGU5_pwv-5" style="edgeStyle=orthogonalEdgeStyle;rounded=0;orthogonalLoop=1;jettySize=auto;html=1;" parent="1" source="95CVfnCXo2DmVGU5_pwv-2" target="95CVfnCXo2DmVGU5_pwv-3" edge="1">
          <mxGeometry relative="1" as="geometry" />
        </mxCell>
        <mxCell id="95CVfnCXo2DmVGU5_pwv-2" value="start" style="whiteSpace=wrap;html=1;" parent="1" vertex="1">
          <mxGeometry x="414" y="555" width="120" height="60" as="geometry" />
        </mxCell>
        <mxCell id="95CVfnCXo2DmVGU5_pwv-6" style="edgeStyle=orthogonalEdgeStyle;rounded=0;orthogonalLoop=1;jettySize=auto;html=1;entryX=0.5;entryY=0;entryDx=0;entryDy=0;" parent="1" source="95CVfnCXo2DmVGU5_pwv-3" target="95CVfnCXo2DmVGU5_pwv-4" edge="1">
          <mxGeometry relative="1" as="geometry" />
        </mxCell>
        <mxCell id="95CVfnCXo2DmVGU5_pwv-7" value="是" style="edgeLabel;html=1;align=center;verticalAlign=middle;resizable=0;points=[];" parent="95CVfnCXo2DmVGU5_pwv-6" vertex="1" connectable="0">
          <mxGeometry x="-0.25" relative="1" as="geometry">
            <mxPoint as="offset" />
          </mxGeometry>
        </mxCell>
        <mxCell id="95CVfnCXo2DmVGU5_pwv-9" style="edgeStyle=orthogonalEdgeStyle;rounded=0;orthogonalLoop=1;jettySize=auto;html=1;entryX=0;entryY=0.5;entryDx=0;entryDy=0;" parent="1" source="95CVfnCXo2DmVGU5_pwv-3" target="95CVfnCXo2DmVGU5_pwv-8" edge="1">
          <mxGeometry relative="1" as="geometry" />
        </mxCell>
        <mxCell id="95CVfnCXo2DmVGU5_pwv-10" value="否" style="edgeLabel;html=1;align=center;verticalAlign=middle;resizable=0;points=[];" parent="95CVfnCXo2DmVGU5_pwv-9" vertex="1" connectable="0">
          <mxGeometry x="-0.3382" relative="1" as="geometry">
            <mxPoint as="offset" />
          </mxGeometry>
        </mxCell>
        <mxCell id="95CVfnCXo2DmVGU5_pwv-3" value="锁标志为11？&lt;br&gt;（无锁状态）" style="rhombus;whiteSpace=wrap;html=1;fontFamily=Helvetica;fontSize=12;fontColor=default;" parent="1" vertex="1">
          <mxGeometry x="404" y="690" width="140" height="130" as="geometry" />
        </mxCell>
        <mxCell id="95CVfnCXo2DmVGU5_pwv-15" style="edgeStyle=orthogonalEdgeStyle;rounded=0;orthogonalLoop=1;jettySize=auto;html=1;entryX=0;entryY=0.5;entryDx=0;entryDy=0;" parent="1" source="95CVfnCXo2DmVGU5_pwv-4" target="95CVfnCXo2DmVGU5_pwv-13" edge="1">
          <mxGeometry relative="1" as="geometry">
            <Array as="points">
              <mxPoint x="474" y="1199" />
            </Array>
          </mxGeometry>
        </mxCell>
        <mxCell id="95CVfnCXo2DmVGU5_pwv-17" value="成功" style="edgeLabel;html=1;align=center;verticalAlign=middle;resizable=0;points=[];" parent="95CVfnCXo2DmVGU5_pwv-15" vertex="1" connectable="0">
          <mxGeometry x="-0.3714" relative="1" as="geometry">
            <mxPoint as="offset" />
          </mxGeometry>
        </mxCell>
        <mxCell id="95CVfnCXo2DmVGU5_pwv-24" style="edgeStyle=orthogonalEdgeStyle;rounded=0;orthogonalLoop=1;jettySize=auto;html=1;entryX=1;entryY=0.5;entryDx=0;entryDy=0;" parent="1" source="95CVfnCXo2DmVGU5_pwv-4" target="95CVfnCXo2DmVGU5_pwv-18" edge="1">
          <mxGeometry relative="1" as="geometry" />
        </mxCell>
        <mxCell id="95CVfnCXo2DmVGU5_pwv-25" value="失败" style="edgeLabel;html=1;align=center;verticalAlign=middle;resizable=0;points=[];" parent="95CVfnCXo2DmVGU5_pwv-24" vertex="1" connectable="0">
          <mxGeometry x="-0.1948" y="1" relative="1" as="geometry">
            <mxPoint as="offset" />
          </mxGeometry>
        </mxCell>
        <mxCell id="95CVfnCXo2DmVGU5_pwv-4" value="CAS替换mark world，偏向当前线程，记录线程ID" style="rhombus;whiteSpace=wrap;html=1;fontFamily=Helvetica;fontSize=12;fontColor=default;" parent="1" vertex="1">
          <mxGeometry x="404" y="900" width="140" height="130" as="geometry" />
        </mxCell>
        <mxCell id="95CVfnCXo2DmVGU5_pwv-12" value="是" style="edgeStyle=orthogonalEdgeStyle;rounded=0;orthogonalLoop=1;jettySize=auto;html=1;entryX=0.5;entryY=0;entryDx=0;entryDy=0;" parent="1" source="95CVfnCXo2DmVGU5_pwv-8" target="95CVfnCXo2DmVGU5_pwv-11" edge="1">
          <mxGeometry relative="1" as="geometry" />
        </mxCell>
        <mxCell id="Y4Mr5a6Edq2xtOodHj_R-2" value="否" style="edgeStyle=orthogonalEdgeStyle;rounded=0;orthogonalLoop=1;jettySize=auto;html=1;" edge="1" parent="1" source="95CVfnCXo2DmVGU5_pwv-8" target="Y4Mr5a6Edq2xtOodHj_R-1">
          <mxGeometry relative="1" as="geometry" />
        </mxCell>
        <mxCell id="95CVfnCXo2DmVGU5_pwv-8" value="锁标志位01？&lt;br&gt;（偏向锁）" style="rhombus;whiteSpace=wrap;html=1;fontFamily=Helvetica;fontSize=12;fontColor=default;" parent="1" vertex="1">
          <mxGeometry x="680" y="690" width="140" height="130" as="geometry" />
        </mxCell>
        <mxCell id="95CVfnCXo2DmVGU5_pwv-14" value="是" style="edgeStyle=orthogonalEdgeStyle;rounded=0;orthogonalLoop=1;jettySize=auto;html=1;entryX=0.5;entryY=0;entryDx=0;entryDy=0;" parent="1" source="95CVfnCXo2DmVGU5_pwv-11" target="95CVfnCXo2DmVGU5_pwv-13" edge="1">
          <mxGeometry relative="1" as="geometry" />
        </mxCell>
        <mxCell id="-dIbOgSuruI6Xi6V4E4G-1" style="edgeStyle=orthogonalEdgeStyle;rounded=0;orthogonalLoop=1;jettySize=auto;html=1;entryX=1;entryY=0.5;entryDx=0;entryDy=0;" parent="1" source="95CVfnCXo2DmVGU5_pwv-11" target="95CVfnCXo2DmVGU5_pwv-4" edge="1">
          <mxGeometry relative="1" as="geometry" />
        </mxCell>
        <mxCell id="-dIbOgSuruI6Xi6V4E4G-2" value="否" style="edgeLabel;html=1;align=center;verticalAlign=middle;resizable=0;points=[];" parent="-dIbOgSuruI6Xi6V4E4G-1" vertex="1" connectable="0">
          <mxGeometry x="0.0294" y="2" relative="1" as="geometry">
            <mxPoint as="offset" />
          </mxGeometry>
        </mxCell>
        <mxCell id="95CVfnCXo2DmVGU5_pwv-11" value="偏向当前线程？" style="rhombus;whiteSpace=wrap;html=1;fontFamily=Helvetica;fontSize=12;fontColor=default;" parent="1" vertex="1">
          <mxGeometry x="680" y="900" width="140" height="130" as="geometry" />
        </mxCell>
        <mxCell id="95CVfnCXo2DmVGU5_pwv-13" value="end" style="whiteSpace=wrap;html=1;" parent="1" vertex="1">
          <mxGeometry x="690" y="1169" width="120" height="60" as="geometry" />
        </mxCell>
        <mxCell id="95CVfnCXo2DmVGU5_pwv-21" style="edgeStyle=orthogonalEdgeStyle;rounded=0;orthogonalLoop=1;jettySize=auto;html=1;entryX=0.5;entryY=0;entryDx=0;entryDy=0;" parent="1" source="95CVfnCXo2DmVGU5_pwv-18" target="95CVfnCXo2DmVGU5_pwv-19" edge="1">
          <mxGeometry relative="1" as="geometry" />
        </mxCell>
        <mxCell id="95CVfnCXo2DmVGU5_pwv-18" value="等待持有锁的线程到safepoint" style="whiteSpace=wrap;html=1;" parent="1" vertex="1">
          <mxGeometry x="130" y="935" width="120" height="60" as="geometry" />
        </mxCell>
        <mxCell id="95CVfnCXo2DmVGU5_pwv-22" value="是" style="edgeStyle=orthogonalEdgeStyle;rounded=0;orthogonalLoop=1;jettySize=auto;html=1;entryX=0.5;entryY=0;entryDx=0;entryDy=0;" parent="1" source="95CVfnCXo2DmVGU5_pwv-19" target="95CVfnCXo2DmVGU5_pwv-20" edge="1">
          <mxGeometry relative="1" as="geometry" />
        </mxCell>
        <mxCell id="95CVfnCXo2DmVGU5_pwv-26" value="否" style="edgeStyle=orthogonalEdgeStyle;rounded=0;orthogonalLoop=1;jettySize=auto;html=1;entryX=0.05;entryY=0.577;entryDx=0;entryDy=0;entryPerimeter=0;" parent="1" source="95CVfnCXo2DmVGU5_pwv-19" target="95CVfnCXo2DmVGU5_pwv-4" edge="1">
          <mxGeometry relative="1" as="geometry">
            <Array as="points">
              <mxPoint x="411" y="1164" />
            </Array>
          </mxGeometry>
        </mxCell>
        <mxCell id="95CVfnCXo2DmVGU5_pwv-19" value="持有锁的线程仍然活跃？" style="rhombus;whiteSpace=wrap;html=1;fontFamily=Helvetica;fontSize=12;fontColor=default;" parent="1" vertex="1">
          <mxGeometry x="120" y="1099" width="140" height="130" as="geometry" />
        </mxCell>
        <mxCell id="95CVfnCXo2DmVGU5_pwv-23" style="edgeStyle=orthogonalEdgeStyle;rounded=0;orthogonalLoop=1;jettySize=auto;html=1;entryX=0.5;entryY=1;entryDx=0;entryDy=0;" parent="1" source="95CVfnCXo2DmVGU5_pwv-20" target="95CVfnCXo2DmVGU5_pwv-13" edge="1">
          <mxGeometry relative="1" as="geometry" />
        </mxCell>
        <mxCell id="95CVfnCXo2DmVGU5_pwv-20" value="升级为轻量级锁，由持有锁的线程继续持有锁，当前线程自旋" style="whiteSpace=wrap;html=1;" parent="1" vertex="1">
          <mxGeometry x="130" y="1310" width="120" height="60" as="geometry" />
        </mxCell>
        <mxCell id="Y4Mr5a6Edq2xtOodHj_R-5" value="是" style="edgeStyle=orthogonalEdgeStyle;rounded=0;orthogonalLoop=1;jettySize=auto;html=1;entryX=0.5;entryY=0;entryDx=0;entryDy=0;" edge="1" parent="1" source="Y4Mr5a6Edq2xtOodHj_R-1" target="Y4Mr5a6Edq2xtOodHj_R-3">
          <mxGeometry relative="1" as="geometry" />
        </mxCell>
        <mxCell id="Y4Mr5a6Edq2xtOodHj_R-12" style="edgeStyle=orthogonalEdgeStyle;rounded=0;orthogonalLoop=1;jettySize=auto;html=1;entryX=0;entryY=0.5;entryDx=0;entryDy=0;" edge="1" parent="1" source="Y4Mr5a6Edq2xtOodHj_R-1" target="Y4Mr5a6Edq2xtOodHj_R-11">
          <mxGeometry relative="1" as="geometry" />
        </mxCell>
        <mxCell id="Y4Mr5a6Edq2xtOodHj_R-1" value="锁标志位00？&lt;br&gt;（轻量级锁）" style="rhombus;whiteSpace=wrap;html=1;fontFamily=Helvetica;fontSize=12;fontColor=default;" vertex="1" parent="1">
          <mxGeometry x="920" y="690" width="140" height="130" as="geometry" />
        </mxCell>
        <mxCell id="Y4Mr5a6Edq2xtOodHj_R-6" style="edgeStyle=orthogonalEdgeStyle;rounded=0;orthogonalLoop=1;jettySize=auto;html=1;entryX=0.5;entryY=0;entryDx=0;entryDy=0;" edge="1" parent="1" source="Y4Mr5a6Edq2xtOodHj_R-3" target="Y4Mr5a6Edq2xtOodHj_R-4">
          <mxGeometry relative="1" as="geometry" />
        </mxCell>
        <mxCell id="Y4Mr5a6Edq2xtOodHj_R-3" value="构造一个无锁状态的mark world复制到lock record中" style="whiteSpace=wrap;html=1;" vertex="1" parent="1">
          <mxGeometry x="930" y="935" width="120" height="60" as="geometry" />
        </mxCell>
        <mxCell id="Y4Mr5a6Edq2xtOodHj_R-7" value="成功" style="edgeStyle=orthogonalEdgeStyle;rounded=0;orthogonalLoop=1;jettySize=auto;html=1;entryX=1;entryY=0.5;entryDx=0;entryDy=0;" edge="1" parent="1" source="Y4Mr5a6Edq2xtOodHj_R-4" target="95CVfnCXo2DmVGU5_pwv-13">
          <mxGeometry relative="1" as="geometry" />
        </mxCell>
        <mxCell id="Y4Mr5a6Edq2xtOodHj_R-9" value="失败" style="edgeStyle=orthogonalEdgeStyle;rounded=0;orthogonalLoop=1;jettySize=auto;html=1;entryX=0.5;entryY=0;entryDx=0;entryDy=0;" edge="1" parent="1" source="Y4Mr5a6Edq2xtOodHj_R-4" target="Y4Mr5a6Edq2xtOodHj_R-8">
          <mxGeometry relative="1" as="geometry" />
        </mxCell>
        <mxCell id="Y4Mr5a6Edq2xtOodHj_R-4" value="cas设置mark world中的记录指向lock record" style="rhombus;whiteSpace=wrap;html=1;fontFamily=Helvetica;fontSize=12;fontColor=default;" vertex="1" parent="1">
          <mxGeometry x="920" y="1134" width="140" height="130" as="geometry" />
        </mxCell>
        <mxCell id="Y4Mr5a6Edq2xtOodHj_R-10" style="edgeStyle=orthogonalEdgeStyle;rounded=0;orthogonalLoop=1;jettySize=auto;html=1;entryX=0.933;entryY=0.983;entryDx=0;entryDy=0;entryPerimeter=0;" edge="1" parent="1" source="Y4Mr5a6Edq2xtOodHj_R-8" target="95CVfnCXo2DmVGU5_pwv-13">
          <mxGeometry relative="1" as="geometry" />
        </mxCell>
        <mxCell id="Y4Mr5a6Edq2xtOodHj_R-8" value="自旋，如果自旋超过一定次数，或锁竞争超过三个线程，升级为重量级锁" style="whiteSpace=wrap;html=1;" vertex="1" parent="1">
          <mxGeometry x="930" y="1350" width="120" height="60" as="geometry" />
        </mxCell>
        <mxCell id="Y4Mr5a6Edq2xtOodHj_R-14" style="edgeStyle=orthogonalEdgeStyle;rounded=0;orthogonalLoop=1;jettySize=auto;html=1;entryX=0.75;entryY=1;entryDx=0;entryDy=0;" edge="1" parent="1" source="Y4Mr5a6Edq2xtOodHj_R-11" target="95CVfnCXo2DmVGU5_pwv-13">
          <mxGeometry relative="1" as="geometry">
            <Array as="points">
              <mxPoint x="1261" y="1490" />
              <mxPoint x="780" y="1490" />
            </Array>
          </mxGeometry>
        </mxCell>
        <mxCell id="Y4Mr5a6Edq2xtOodHj_R-11" value="竞争monitor对象锁，成功：获取锁，失败：阻塞" style="whiteSpace=wrap;html=1;" vertex="1" parent="1">
          <mxGeometry x="1201" y="725" width="120" height="60" as="geometry" />
        </mxCell>
      </root>
    </mxGraphModel>
  </diagram>
</mxfile>
